<svg aria-hidden="true" focusable="false" xmlns="http://www.w3.org/2000/svg" viewBox="0 0 24 24">
  <path fill="currentColor" d="M12 2a10 10 0 0 0-8.66 15l-1.2 4.4 4.5-1.2A10 10 0 1 0 12 2Zm0 1.8a8.2 8.2 0 0 1 0 16.4 8.1 8.1 0 0 1-4.1-1.1l-.4-.2-2.6.7.7-2.5-.2-.4A8.2 8.2 0 0 1 12 3.8Zm-3 3.5c-.2 0-.4.1-.6.3l-.8.9c-.2.2-.2.5-.1.8.3 1.1 1 2.3 2.1 3.4s2.3 1.8 3.4 2.1c.3.1.6 0 .8-.2l.9-.8c.2-.2.3-.4.3-.6v-1c0-.3-.2-.6-.5-.7l-1.9-.8c-.3-.1-.7 0-.9.2l-.6.6c-.1.1-.3.2-.5.1-.5-.2-1-.6-1.5-1.1s-.9-1-1.1-1.5c-.1-.2 0-.4.1-.5l.6-.6c.2-.2.3-.6.2-.9l-.8-1.9c-.1-.3-.4-.5-.7-.5H9Z"/>
</svg>
